#N canvas -8 -8 1366 685 10;
#X obj 413 84 adc~;
#X obj 396 253 env~;
#X floatatom 395 342 5 0 0 0 - - -;
#X obj 396 388 moses;
#X floatatom 282 343 5 0 0 0 - - -;
#X obj 414 123 hip~ 120;
#X obj 406 162 lop~ 600;
#X obj 465 159 lop~ 600;
#X obj 459 190 lop~ 600;
#X obj 399 207 bp~ 10 1;
#X obj 396 300 mavg 50;
#X obj 436 552 system;
#X obj 462 390 bng 15 250 50 0 empty empty empty 17 7 0 10 -262144
-1 -1;
#X obj 403 452 timer;
#X floatatom 318 459 5 0 0 0 - - -;
#X obj 427 421 bang;
#X obj 372 425 bang;
#X obj 323 396 loadbang;
#X obj 362 538 print test;
#X obj 409 490 moses 750;
#X obj 713 76 adc~;
#X obj 696 245 env~;
#X floatatom 695 334 5 0 0 0 - - -;
#X floatatom 582 335 5 0 0 0 - - -;
#X obj 696 193 bp~ 10 1;
#X obj 736 544 system;
#X obj 703 444 timer;
#X floatatom 618 451 5 0 0 0 - - -;
#X obj 727 413 bang;
#X obj 672 417 bang;
#X obj 623 388 loadbang;
#X obj 662 530 print test;
#X obj 709 482 moses 750;
#X obj 714 115 hip~ 7000;
#X obj 688 148 lop~ 8000;
#X obj 778 373 moses 2;
#X msg 436 522 say "command 1";
#X msg 736 514 say "command 2";
#X obj 767 153 lop~ 8000;
#X obj 759 185 lop~ 8000;
#X obj 696 291 mavg 100;
#X floatatom 1024 375 5 0 0 0 - - -;
#X obj 909 248 bng 15 250 50 0 empty empty empty 17 7 0 10 -262144
-1 -1;
#X msg 915 293 4000;
#X msg 1027 296 35;
#X obj 1005 233 bang;
#X obj 759 325 moses;
#X msg 933 91 1;
#X msg 1020 94 4000;
#X obj 909 50 bng 15 250 50 0 empty empty empty 17 7 0 10 -262144 -1
-1;
#X floatatom 977 148 5 0 0 0 - - -;
#X obj 1013 44 bang;
#X connect 0 0 5 0;
#X connect 1 0 4 0;
#X connect 1 0 10 0;
#X connect 2 0 3 0;
#X connect 3 1 12 0;
#X connect 3 1 15 0;
#X connect 5 0 6 0;
#X connect 6 0 7 0;
#X connect 7 0 8 0;
#X connect 8 0 9 0;
#X connect 9 0 1 0;
#X connect 10 0 2 0;
#X connect 13 0 14 0;
#X connect 13 0 19 0;
#X connect 15 0 13 1;
#X connect 16 0 13 0;
#X connect 17 0 16 0;
#X connect 19 1 36 0;
#X connect 19 1 16 0;
#X connect 19 1 18 0;
#X connect 20 0 33 0;
#X connect 21 0 23 0;
#X connect 21 0 40 0;
#X connect 22 0 46 0;
#X connect 24 0 21 0;
#X connect 26 0 27 0;
#X connect 26 0 32 0;
#X connect 28 0 26 1;
#X connect 29 0 26 0;
#X connect 30 0 29 0;
#X connect 32 1 37 0;
#X connect 32 1 29 0;
#X connect 32 1 31 0;
#X connect 32 1 45 0;
#X connect 32 1 51 0;
#X connect 33 0 34 0;
#X connect 34 0 38 0;
#X connect 35 0 28 0;
#X connect 36 0 11 0;
#X connect 37 0 25 0;
#X connect 38 0 39 0;
#X connect 39 0 24 0;
#X connect 40 0 22 0;
#X connect 41 0 3 1;
#X connect 42 0 43 0;
#X connect 43 0 41 0;
#X connect 44 0 41 0;
#X connect 45 0 44 0;
#X connect 46 1 35 0;
#X connect 47 0 50 0;
#X connect 48 0 50 0;
#X connect 49 0 47 0;
#X connect 50 0 46 1;
#X connect 51 0 48 0;
